<?xml version="1.0" encoding="utf-8"?>
<!-- Generator: Adobe Illustrator 16.0.0, SVG Export Plug-In . SVG Version: 6.00 Build 0)  -->
<!DOCTYPE svg PUBLIC "-//W3C//DTD SVG 1.1//EN" "http://www.w3.org/Graphics/SVG/1.1/DTD/svg11.dtd">
<svg version="1.1" id="Calque_1" xmlns="http://www.w3.org/2000/svg" xmlns:xlink="http://www.w3.org/1999/xlink" x="0px" y="0px"
	 width="256px" height="256px" viewBox="0 0 256 256" enable-background="new 0 0 256 256" xml:space="preserve">
<a xlink:href="http://logo.webnhanh.com/logo/grails.svg.html" >
	<g>
		<path fill="#7AB852" d="M137.787,214.523c6.027-0.861,12.914-2.584,16.358-4.305c3.443-1.723,6.026-4.305,6.026-6.027
			c0,0-0.861-1.721-1.723-3.443c-1.721-2.582-3.443-6.027-7.748-15.496c-1.721-4.305-5.617-15.582-6.887-20.662
			c-1.316-7.592-1.436-15.677,0-23.246c1.249-4.426,2.967-8.705,6.026-12.053c3.434-4.542,7.462-9.021,12.913-11.191
			c16.976-6.757,37.02-21.523,47.352-37.88c3.443-6.027,5.086-8.609,6.342-12.053c3.105-8.52,5.848-17.57,5.711-26.688v-0.861
			h-94.701H31.895v1.722c-0.142,22.56,13.194,42.894,29.271,57.682c8.61,7.749,18.94,13.775,30.994,18.08
			c4.304,1.722,6.026,2.583,9.47,6.026c4.305,5.165,7.749,11.192,9.471,18.079c1.042,9.951,0.262,20.466-2.583,30.133l-1.722,5.166
			c-0.861,3.443-3.444,8.609-7.749,17.217c-4.305,8.609-4.305,9.471-4.305,10.332c1.722,5.166,12.053,8.609,27.549,10.33
			C125.735,215.383,130.9,215.383,137.787,214.523L137.787,214.523z M65.471,185.252c6.026-0.861,11.192-2.584,12.914-5.166v-0.861
			l-0.861-2.582c-6.026-11.192-9.47-20.662-9.47-30.133c0-5.166,0.861-7.748,2.583-12.053c2.583-4.305,3.443-5.693,7.748-7.416
			c1.722-0.881,3.776-1.213,4.637-1.742c2.25-0.666,4.833-2.035,4.833-2.035s-1.545-0.333-3.288-1.193
			c-5.165-1.722-7.043-3.111-11.348-5.694c-13.775-7.748-22.384-15.496-30.993-26.688c-2.583-4.305-3.919-6.207-5.166-7.941
			l-0.861-1.529c-0.861-0.861-35.298-0.861-36.159,0c-0.583,12.053,5.193,22.671,12.914,31.854
			c9.02,10.727,16.358,13.775,23.245,15.497c6.026,1.721,6.887,2.583,9.47,6.026c1.722,4.305,2.583,6.888,2.583,12.053
			c0.861,7.749-1.722,15.497-6.888,26.689c-1.722,3.443-3.444,6.887-3.444,6.887c0,0.861,1.722,2.584,3.444,3.443
			C45.669,185.252,57.722,186.973,65.471,185.252L65.471,185.252z M205.801,185.252c6.887-0.861,11.191-2.584,12.053-5.166
			c0-0.861,0-1.723-2.583-6.887c-5.416-10.693-9.153-23.4-6.026-35.299c1.787-4.816,4.086-9.835,9.471-10.671
			c8.609-2.583,15.496-6.547,24.105-15.156c5.166-5.166,9.971-13.88,11.32-18.94c1.082-4.056,2.442-8.907,1.594-12.914
			c-0.861-0.861-36.159-0.861-37.02,0c0,0-0.861,0.86-1.723,1.722c-0.861,2.583-4.305,7.749-6.887,10.331
			c-3.443,4.305-13.775,14.636-17.219,17.218c-6.35,6.505-18.535,10.888-24.967,13.775c0.861,0.861,5.166,3.444,8.609,4.305
			c6.887,2.583,6.887,2.583,9.471,6.887c1.721,4.305,2.582,6.887,2.582,12.053c0.477,11.949-5.616,23.016-10.331,32.715
			C184.371,186.115,197.224,185.941,205.801,185.252L205.801,185.252z"/>
	</g>
</a>
</svg>
