<?xml version="1.0" encoding="utf-8"?>
<!-- Generator: Adobe Illustrator 16.0.0, SVG Export Plug-In . SVG Version: 6.00 Build 0)  -->
<!DOCTYPE svg PUBLIC "-//W3C//DTD SVG 1.1//EN" "http://www.w3.org/Graphics/SVG/1.1/DTD/svg11.dtd">
<svg version="1.1"
	 id="Layer_1" sodipodi:docname="kibana.svg" inkscape:version="0.91 r13725" xmlns:cc="http://creativecommons.org/ns#" xmlns:svg="http://www.w3.org/2000/svg" xmlns:sodipodi="http://sodipodi.sourceforge.net/DTD/sodipodi-0.dtd" xmlns:rdf="http://www.w3.org/1999/02/22-rdf-syntax-ns#" xmlns:inkscape="http://www.inkscape.org/namespaces/inkscape" xmlns:dc="http://purl.org/dc/elements/1.1/"
	 xmlns="http://www.w3.org/2000/svg" xmlns:xlink="http://www.w3.org/1999/xlink" x="0px" y="0px" width="67px" height="28.333px"
	 viewBox="-1.833 17.5 67 28.333" enable-background="new -1.833 17.5 67 28.333" xml:space="preserve">
<sodipodi:namedview  id="namedview29" inkscape:window-x="349" inkscape:window-maximized="0" inkscape:current-layer="Layer_1" inkscape:window-y="210" inkscape:window-width="1796" inkscape:window-height="1079" inkscape:pageopacity="1" inkscape:pageshadow="2" bordercolor="#666666" borderopacity="1" gridtolerance="10" guidetolerance="10" objecttolerance="10" pagecolor="#515151" inkscape:zoom="2.0725756" showgrid="false" inkscape:cx="70.684998" inkscape:cy="25.5">
	</sodipodi:namedview>
<title  id="title7">Kibana-Full-Logo</title>
<g id="text4159" transform="translate(0,-13.509761)">
	<path id="path4891" inkscape:connector-curvature="0" fill="#35519D" fill-opacity="0.9253" d="M24.125,50.711v-3.033l0.951-0.09
		l1.81,3.168h1.856l-2.263-3.983l2.172-3.485h-1.81l-1.765,2.896l-0.905,0.092v-6.156h-1.629v10.592
		C22.495,50.711,24.125,50.711,24.125,50.711z"/>
	<path id="path4893" inkscape:connector-curvature="0" fill="#35519D" fill-opacity="0.9253" d="M30.008,50.711h1.629v-7.469h-1.629
		V50.711z M30.008,41.975h1.629v-1.72h-1.629V41.975z"/>
	<path id="path4895" inkscape:connector-curvature="0" fill="#35519D" fill-opacity="0.9253" d="M37.115,43.106
		c-0.861,0-1.856,0.453-1.856,0.453v-3.395h-1.63v10.591c0,0,1.947,0.181,2.717,0.181c2.67,0,3.666-0.905,3.666-4.028
		C40.012,44.102,39.151,43.106,37.115,43.106z M36.346,49.443c-0.317,0-1.133-0.045-1.133-0.045v-4.527c0,0,0.861-0.317,1.676-0.317
		c0.995,0,1.447,0.679,1.447,2.354C38.336,48.719,38.02,49.443,36.346,49.443z"/>
	<path id="path4897" inkscape:connector-curvature="0" fill="#35519D" fill-opacity="0.9253" d="M47.162,45.551
		c0-1.72-0.77-2.49-2.58-2.49c-1.357,0-2.986,0.408-2.986,0.408l0.045,1.131c0,0,1.811-0.136,2.807-0.136
		c0.724,0,1.086,0.271,1.086,1.086v0.543l-1.946,0.182c-1.584,0.135-2.489,0.678-2.489,2.263c0,1.538,0.77,2.398,2.218,2.398
		c1.222,0,2.399-0.543,2.399-0.543c0.543,0.452,1.086,0.543,1.991,0.543l0.045-1.222c-0.452-0.045-0.634-0.227-0.679-0.68
		L47.162,45.551L47.162,45.551z M45.533,47.225v1.992c0,0-0.996,0.316-1.855,0.316c-0.634,0-0.905-0.406-0.905-1.086
		c0-0.679,0.362-0.996,1.041-1.041L45.533,47.225z"/>
	<path id="path4899" inkscape:connector-curvature="0" fill="#35519D" fill-opacity="0.9253" d="M50.829,50.711v-5.794
		c0,0,0.814-0.407,1.675-0.407c1.131,0,1.312,0.724,1.312,2.218v3.983h1.629v-4.029c0-2.443-0.498-3.621-2.58-3.621
		c-0.95,0-2.082,0.634-2.082,0.634v-0.453h-1.629v7.469C49.199,50.711,50.829,50.711,50.829,50.711z"/>
	<path id="path4901" inkscape:connector-curvature="0" fill="#35519D" fill-opacity="0.9253" d="M62.869,45.551
		c0-1.72-0.77-2.49-2.58-2.49c-1.358,0-2.988,0.408-2.988,0.408l0.046,1.131c0,0,1.811-0.136,2.806-0.136
		c0.725,0,1.087,0.271,1.087,1.086v0.543l-1.946,0.182c-1.584,0.135-2.49,0.678-2.49,2.263c0,1.538,0.77,2.398,2.219,2.398
		c1.222,0,2.398-0.543,2.398-0.543c0.543,0.452,1.086,0.543,1.992,0.543l0.045-1.222c-0.453-0.045-0.634-0.227-0.68-0.68
		L62.869,45.551L62.869,45.551z M61.239,47.225v1.992c0,0-0.996,0.316-1.856,0.316c-0.633,0-0.904-0.406-0.904-1.086
		c0-0.679,0.361-0.996,1.041-1.041L61.239,47.225z"/>
</g>
<g>
	<path opacity="0.7" fill="#35519D" enable-background="new    " d="M8.781,31.23l9.007-10.772H0v8.645c0.09,0,0.227,0,0.317,0
		C3.395,29.104,6.292,29.873,8.781,31.23z"/>
	<polygon opacity="0.7" fill="#35519D" enable-background="new    " points="0,41.867 0,41.867 8.781,31.23 	"/>
	<path opacity="0.7" fill="#35519D" enable-background="new    " d="M11.089,32.725c0.091,0.09,0.181,0.135,0.227,0.181
		C11.27,32.859,11.18,32.814,11.089,32.725z"/>
	<path opacity="0.7" fill="#35519D" enable-background="new    " d="M10.41,32.227c0.045,0.045,0.09,0.045,0.136,0.09
		C10.5,32.317,10.456,32.271,10.41,32.227z"/>
	<path opacity="0.7" fill="#35519D" enable-background="new    " d="M11.678,33.223L3.168,43.542h14.574
		C16.973,39.423,14.801,35.802,11.678,33.223z"/>
	<path opacity="0.5" fill="#35519D" enable-background="new    " d="M10.32,32.181c-0.634-0.453-1.539-0.951-1.539-0.951
		c0.543,0.317,1.086,0.634,1.629,0.996C10.365,32.227,10.365,32.227,10.32,32.181z"/>
	<path opacity="0.5" fill="#35519D" enable-background="new    " d="M11.723,33.223c0,0-0.136-0.092-0.362-0.271
		C11.451,33.041,11.587,33.131,11.723,33.223L11.723,33.223z"/>
	<path opacity="0.5" fill="#35519D" enable-background="new    " d="M10.546,32.362c0.181,0.136,0.362,0.271,0.543,0.407
		C10.953,32.634,10.772,32.498,10.546,32.362z"/>
	<path opacity="0.5" fill="#35519D" enable-background="new    " d="M11.361,32.951c-0.091-0.046-0.136-0.137-0.227-0.182
		c-0.181-0.136-0.362-0.271-0.543-0.407c-0.045-0.045-0.091-0.045-0.136-0.091c-0.498-0.362-1.041-0.679-1.629-0.996L0,41.867v1.675
		h3.168l8.554-10.319C11.587,33.131,11.451,33.041,11.361,32.951z"/>
	<path fill="#35519D" d="M0.317,29.104c-0.09,0-0.227,0-0.317,0v12.764l8.781-10.591C6.292,29.873,3.395,29.104,0.317,29.104z"/>
</g>
</svg>
