<?xml version="1.0" encoding="utf-8"?>
<!-- Generator: Adobe Illustrator 16.0.0, SVG Export Plug-In . SVG Version: 6.00 Build 0)  -->
<!DOCTYPE svg PUBLIC "-//W3C//DTD SVG 1.1//EN" "http://www.w3.org/Graphics/SVG/1.1/DTD/svg11.dtd">
<svg version="1.1" id="Calque_1" xmlns="http://www.w3.org/2000/svg" xmlns:xlink="http://www.w3.org/1999/xlink" x="0px" y="0px"
	 width="411.5px" height="210px" viewBox="0 0 411.5 210" enable-background="new 0 0 411.5 210" xml:space="preserve">
<path fill="#CB3837" d="M20.5,33.25h369v123H205v20.5h-82v-20.5H20.5V33.25z M41,135.75h41v-61.5h20.5v61.5H123v-82H41V135.75z
	 M143.5,53.75v102.5h41v-20.5h41v-82H143.5z M184.5,74.25H205v41h-20.5V74.25z M246,53.75v82h41v-61.5h20.5v61.5H328v-61.5h20.5
	v61.5H369v-82H246z"/>
<polygon fill="#FFFFFF" points="41,135.75 82,135.75 82,74.25 102.5,74.25 102.5,135.75 123,135.75 123,53.75 41,53.75 "/>
<path fill="#FFFFFF" d="M143.5,53.75v102.5h41v-20.5h41v-82H143.5z M205,115.25h-20.5v-41H205V115.25z"/>
<polygon fill="#FFFFFF" points="246,53.75 246,135.75 287,135.75 287,74.25 307.5,74.25 307.5,135.75 328,135.75 328,74.25 
	348.5,74.25 348.5,135.75 369,135.75 369,53.75 "/>
</svg>
